<?xml version="1.0" encoding="iso-8859-1"?>
<!-- Generator: Adobe Illustrator 18.1.1, SVG Export Plug-In . SVG Version: 6.00 Build 0)  -->
<svg version="1.1" id="Capa_1" xmlns="http://www.w3.org/2000/svg" xmlns:xlink="http://www.w3.org/1999/xlink" x="0px" y="0px"
	 viewBox="0 0 612 612" style="enable-background:new 0 0 612 612;" xml:space="preserve">
<g>
	<g>
		<rect y="546.905" width="612" height="26.901"/>
		<path d="M53.802,513.279h80.703c7.425,0,13.451-6.026,13.451-13.451V278.621c0-4.634-2.387-8.945-6.322-11.406l-40.352-25.22
			c-4.358-2.724-9.9-2.724-14.258,0l-40.352,25.22c-3.934,2.461-6.322,6.772-6.322,11.406v221.208
			C40.352,507.253,46.371,513.279,53.802,513.279z"/>
		<path d="M195.033,513.279h80.703c7.425,0,13.451-6.026,13.451-13.451v-275.01c0-4.634-2.387-8.945-6.322-11.406l-40.352-25.22
			c-4.358-2.724-9.9-2.724-14.258,0l-40.352,25.22c-3.934,2.461-6.322,6.772-6.322,11.406v275.01
			C181.582,507.253,187.602,513.279,195.033,513.279z M208.484,232.277l26.901-16.813l26.901,16.813v254.101h-53.802V232.277z"/>
		<path d="M477.495,513.279h80.703c7.425,0,13.451-6.026,13.451-13.451V150.84c0-4.634-2.387-8.945-6.322-11.406l-40.352-25.22
			c-4.358-2.724-9.9-2.724-14.258,0l-40.352,25.22c-3.934,2.461-6.322,6.772-6.322,11.406v348.988
			C464.044,507.253,470.063,513.279,477.495,513.279z M490.945,158.299l26.901-16.813l26.901,16.813v328.079h-53.802V158.299z"/>
		<path d="M336.264,513.279h80.703c7.425,0,13.451-6.026,13.451-13.451V76.862c0-4.634-2.387-8.945-6.322-11.406l-40.352-25.22
			c-4.365-2.724-9.9-2.724-14.258,0l-40.352,25.22c-3.934,2.461-6.322,6.772-6.322,11.406v422.966
			C322.813,507.253,328.832,513.279,336.264,513.279z"/>
	</g>
</g>
<g>
</g>
<g>
</g>
<g>
</g>
<g>
</g>
<g>
</g>
<g>
</g>
<g>
</g>
<g>
</g>
<g>
</g>
<g>
</g>
<g>
</g>
<g>
</g>
<g>
</g>
<g>
</g>
<g>
</g>
</svg>
