<?xml version="1.0" encoding="iso-8859-1"?>
<!-- Generator: Adobe Illustrator 18.1.1, SVG Export Plug-In . SVG Version: 6.00 Build 0)  -->
<svg version="1.1" id="Capa_1" xmlns="http://www.w3.org/2000/svg" xmlns:xlink="http://www.w3.org/1999/xlink" x="0px" y="0px"
	 viewBox="0 0 612 612" style="enable-background:new 0 0 612 612;" xml:space="preserve">
<g>
	<g>
		<g>
			<g>
				<path d="M573.75,86.062H38.25C17.212,86.062,0,103.275,0,124.312v44.625h612v-44.625C612,103.275,594.788,86.062,573.75,86.062z
					"/>
				<path d="M573.75,86.062H38.25C17.212,86.062,0,103.275,0,124.312v44.625h612v-44.625C612,103.275,594.788,86.062,573.75,86.062z
					"/>
			</g>
		</g>
		<g>
			<path d="M0,487.688c0,21.038,17.212,38.25,38.25,38.25h535.5c21.038,0,38.25-17.212,38.25-38.25v-242.25H0V487.688z M510,474.938
				h-19.125v-51H510V474.938z M541.875,474.938H522.75v-51h19.125V474.938z M573.75,474.938h-19.125v-51h19.125V474.938z
				 M484.5,296.438c0-7.012,5.738-12.75,12.75-12.75H561c7.013,0,12.75,5.738,12.75,12.75v63.75c0,7.012-5.737,12.75-12.75,12.75
				h-63.75c-7.012,0-12.75-5.738-12.75-12.75V296.438z M452.625,423.938h19.125v51h-19.125V423.938z M420.75,423.938h19.125v51
				H420.75V423.938z M369.75,423.938h19.125v51H369.75V423.938z M337.875,423.938H357v51h-19.125V423.938z M299.625,423.938h19.125
				v51h-19.125V423.938z M267.75,423.938h19.125v51H267.75V423.938z M223.125,423.938h19.125v51h-19.125V423.938z M191.25,423.938
				h19.125v51H191.25V423.938z M153,423.938h19.125v51H153V423.938z M114.75,423.938h19.125v51H114.75V423.938z M82.875,423.938H102
				v51H82.875V423.938z M44.625,423.938H63.75v51H44.625V423.938z"/>
			<path d="M0,487.688c0,21.038,17.212,38.25,38.25,38.25h535.5c21.038,0,38.25-17.212,38.25-38.25v-242.25H0V487.688z M510,474.938
				h-19.125v-51H510V474.938z M541.875,474.938H522.75v-51h19.125V474.938z M573.75,474.938h-19.125v-51h19.125V474.938z
				 M484.5,296.438c0-7.012,5.738-12.75,12.75-12.75H561c7.013,0,12.75,5.738,12.75,12.75v63.75c0,7.012-5.737,12.75-12.75,12.75
				h-63.75c-7.012,0-12.75-5.738-12.75-12.75V296.438z M452.625,423.938h19.125v51h-19.125V423.938z M420.75,423.938h19.125v51
				H420.75V423.938z M369.75,423.938h19.125v51H369.75V423.938z M337.875,423.938H357v51h-19.125V423.938z M299.625,423.938h19.125
				v51h-19.125V423.938z M267.75,423.938h19.125v51H267.75V423.938z M223.125,423.938h19.125v51h-19.125V423.938z M191.25,423.938
				h19.125v51H191.25V423.938z M153,423.938h19.125v51H153V423.938z M114.75,423.938h19.125v51H114.75V423.938z M82.875,423.938H102
				v51H82.875V423.938z M44.625,423.938H63.75v51H44.625V423.938z"/>
		</g>
	</g>
</g>
<g>
</g>
<g>
</g>
<g>
</g>
<g>
</g>
<g>
</g>
<g>
</g>
<g>
</g>
<g>
</g>
<g>
</g>
<g>
</g>
<g>
</g>
<g>
</g>
<g>
</g>
<g>
</g>
<g>
</g>
</svg>
