<?xml version="1.0" encoding="iso-8859-1"?>
<!-- Generator: Adobe Illustrator 18.1.1, SVG Export Plug-In . SVG Version: 6.00 Build 0)  -->
<svg version="1.1" id="Capa_1" xmlns="http://www.w3.org/2000/svg" xmlns:xlink="http://www.w3.org/1999/xlink" x="0px" y="0px"
	 viewBox="0 0 611.999 611.999" style="enable-background:new 0 0 611.999 611.999;" xml:space="preserve">
<g>
	<g>
		<path d="M3.398,226.205l212.37,277.376c8.135,10.633,24.639,0.606,19.048-11.571L107.502,214.628
			c-1.83-3.984-5.801-6.541-10.174-6.541H12.279C2.99,208.087-2.263,218.804,3.398,226.205z"/>
		<path d="M609.814,168.639l-40.182-55.118c-5.043-6.923-15.625-5.859-19.208,1.932l-25.341,55.118
			c-3.423,7.459,1.995,15.976,10.174,15.976h65.51C609.954,186.54,615.232,176.072,609.814,168.639z"/>
		<path d="M42.617,113.17l-40.43,55.469c-5.425,7.433-0.134,17.907,9.033,17.907h65.892c8.173,0,13.598-8.511,10.174-15.969
			l-25.455-55.463C58.255,107.318,47.666,106.247,42.617,113.17z"/>
		<path d="M540.014,72.88l-26.546-36.414c-2.11-2.894-5.47-4.609-9.033-4.609H353.832c-10.423,0-15.204,13.043-7.261,19.826
			c45.524,38.856,107.055,91.22,139.377,118.715c5.648,4.807,14.28,2.862,17.385-3.889l37.81-82.269
			C542.851,80.53,542.417,76.182,540.014,72.88z"/>
		<path d="M258.711,31.857H107.566c-3.57,0-6.93,1.715-9.04,4.609L72.248,72.517c-2.403,3.296-2.837,7.65-1.135,11.36l37.925,82.639
			c3.098,6.751,11.724,8.708,17.378,3.902c32.5-27.604,94.471-80.274,139.549-118.734C273.909,44.906,269.134,31.857,258.711,31.857
			z"/>
		<path d="M135.456,224.057l160.44,349.541c4.004,8.721,16.339,8.727,20.343,0.006l160.644-349.541
			c3.43-7.459-1.995-15.969-10.175-15.969H145.631C137.458,208.087,132.033,216.598,135.456,224.057z"/>
		<path d="M448.424,166.714c-40.067-34.1-97.499-82.996-134.927-114.992c-4.182-3.576-10.27-3.576-14.459,0
			c-36.752,31.435-94.643,80.669-135.035,114.992c-7.969,6.77-3.175,19.826,7.261,19.826h269.898
			C451.593,186.54,456.387,173.49,448.424,166.714z"/>
		<path d="M396.697,502.982l211.905-276.777c5.667-7.401,0.414-18.118-8.88-18.118h-84.705c-4.373,0-8.345,2.55-10.174,6.534
			l-127.2,276.777C372.052,503.581,388.55,513.616,396.697,502.982z"/>
	</g>
</g>
<g>
</g>
<g>
</g>
<g>
</g>
<g>
</g>
<g>
</g>
<g>
</g>
<g>
</g>
<g>
</g>
<g>
</g>
<g>
</g>
<g>
</g>
<g>
</g>
<g>
</g>
<g>
</g>
<g>
</g>
</svg>
