<?xml version="1.0" encoding="iso-8859-1"?>
<!-- Generator: Adobe Illustrator 18.1.1, SVG Export Plug-In . SVG Version: 6.00 Build 0)  -->
<svg version="1.1" id="Capa_1" xmlns="http://www.w3.org/2000/svg" xmlns:xlink="http://www.w3.org/1999/xlink" x="0px" y="0px"
	 viewBox="0 0 612 612" style="enable-background:new 0 0 612 612;" xml:space="preserve">
<g>
	<g>
		<path d="M562.041,109.286c0-13.739-11.241-24.98-24.98-24.98H74.939c-13.739,0-24.98,11.241-24.98,24.98V446.51h512.082V109.286z
			 M537.061,421.531H74.939V109.286h462.122V421.531z"/>
		<path d="M337.224,471.49v31.224h-62.449V471.49H0v31.224c0,13.739,11.241,24.98,24.98,24.98H587.02
			c13.739,0,24.98-11.241,24.98-24.98V471.49H337.224z"/>
		<path d="M524.571,121.776H87.429v287.265h437.143V121.776z M374.694,265.408v31.224h-49.959v24.98h49.959v24.98h-49.959v24.98
			h-37.469v-24.98h-49.959v-24.98h49.959v-24.98h-49.959v-31.224h33.416l-53.338-93.673h43.808l44.351,81.184h0.918l44.358-81.184
			h43.802l-53.338,93.673H374.694z"/>
	</g>
</g>
<g>
</g>
<g>
</g>
<g>
</g>
<g>
</g>
<g>
</g>
<g>
</g>
<g>
</g>
<g>
</g>
<g>
</g>
<g>
</g>
<g>
</g>
<g>
</g>
<g>
</g>
<g>
</g>
<g>
</g>
</svg>
